# xmcd
#
# Track frame offsets:
#	150
#	20157
#	45185
#	62004
#	76844
#	92102
#	109414
#	125214
#	141253
#	158652
#	182861
#	199383
#	220669
#	238841
#	257039
#
# Disc length: 3696 seconds
#
# Revision: 3
# Processed by: cddbd v1.5.2PL0 Copyright (c) Steve Scherf et al.
# Submitted via: audiograbber 1.83.01
#
DISCID=da0e6e0f
DTITLE=Miles Davis - Quadromania, CD 3
DYEAR=1953
DGENRE=Jazz
TTITLE0=Willie The Wailer
TTITLE1=For Adults Only
TTITLE2=Rays Idea
TTITLE3=Kelo
TTITLE4=Enigma
TTITLE5=Tempus Fugit
TTITLE6=I Waited For You
TTITLE7=C.T.A.
TTITLE8=Tune Up
TTITLE9=Well You Needn't
TTITLE10=Take Off
TTITLE11=Weirdo
TTITLE12=Lazy Susan
TTITLE13=It Never Entered My Mind
TTITLE14=The Leap
EXTD=
EXTT0=
EXTT1=
EXTT2=
EXTT3=
EXTT4=
EXTT5=
EXTT6=
EXTT7=
EXTT8=
EXTT9=
EXTT10=
EXTT11=
EXTT12=
EXTT13=
EXTT14=
PLAYORDER=
